<svg width="400" height="400" viewBox="0 0 400 400" fill="none" xmlns="http://www.w3.org/2000/svg">
  <!-- Tree -->
  <circle cx="150" cy="120" r="45" fill="#7A8F5C"/>
  <rect x="142" y="150" width="16" height="35" fill="#2D4A2E"/>
  <path d="M142 165 L130 175 L142 175 Z" fill="#2D4A2E"/>
  <path d="M158 165 L170 175 L158 175 Z" fill="#2D4A2E"/>
  <path d="M150 155 L138 165 L150 165 Z" fill="#2D4A2E"/>
  <path d="M150 155 L162 165 L150 165 Z" fill="#2D4A2E"/>
  
  <!-- House -->
  <rect x="180" y="140" width="80" height="60" fill="#D4A574"/>
  <polygon points="180,140 220,100 260,140" fill="#2D4A2E"/>
  <rect x="190" y="160" width="20" height="40" fill="#F4E4A1"/>
  <circle cx="195" cy="180" r="2" fill="#2D4A2E"/>
  <rect x="230" y="150" width="20" height="20" fill="#F4E4A1"/>
  <line x1="240" y1="150" x2="240" y2="170" stroke="#D4A574" stroke-width="2"/>
  <line x1="230" y1="160" x2="250" y2="160" stroke="#D4A574" stroke-width="2"/>
  
  <!-- Plants -->
  <ellipse cx="290" cy="185" rx="8" ry="12" fill="#7A8F5C"/>
  <ellipse cx="295" cy="175" rx="6" ry="10" fill="#7A8F5C"/>
  <ellipse cx="285" cy="175" rx="6" ry="10" fill="#7A8F5C"/>
  <rect x="289" y="185" width="2" height="15" fill="#2D4A2E"/>
  
  <ellipse cx="120" cy="180" rx="10" ry="15" fill="#5B7A5C"/>
  <ellipse cx="110" cy="170" rx="8" ry="12" fill="#5B7A5C"/>
  <ellipse cx="130" cy="175" rx="6" ry="10" fill="#5B7A5C"/>
  
  <!-- Ground/Hills -->
  <ellipse cx="200" cy="220" rx="120" ry="25" fill="#7A8F5C"/>
  <ellipse cx="180" cy="230" rx="80" ry="15" fill="#5B7A5C"/>
  <ellipse cx="220" cy="235" rx="60" ry="12" fill="#2D4A2E"/>
  
  <!-- Water -->
  <ellipse cx="140" cy="240" rx="40" ry="8" fill="#4A7A7A"/>
  <ellipse cx="130" cy="245" rx="25" ry="5" fill="#5B8F8F"/>
  
  <!-- Text -->
  <text x="200" y="290" text-anchor="middle" font-family="Arial, sans-serif" font-size="36" font-weight="bold" fill="#2D4A2E" letter-spacing="2px">TINY HAVEN</text>
  <text x="200" y="320" text-anchor="middle" font-family="Arial, sans-serif" font-size="20" font-weight="normal" fill="#2D4A2E" letter-spacing="4px">PROJECT</text>
</svg>